<?xml version="1.0" encoding="iso-8859-1"?>
<!-- Generator: Adobe Illustrator 19.0.0, SVG Export Plug-In . SVG Version: 6.00 Build 0)  -->
<svg version="1.1" id="Layer_1" xmlns="http://www.w3.org/2000/svg" xmlns:xlink="http://www.w3.org/1999/xlink" x="0px" y="0px"
	 viewBox="0 0 496.158 496.158" style="enable-background:new 0 0 496.158 496.158;" xml:space="preserve">
<path style="fill:#337180;" d="M496.158,248.085c0-137.022-111.068-248.082-248.074-248.082C111.07,0.003,0,111.063,0,248.085
	c0,137.001,111.07,248.07,248.084,248.07C385.09,496.155,496.158,385.086,496.158,248.085z"/>
<path style="fill:#B5E3EA;" d="M208.053,367.823c-4.404,0.001-8.418-2.639-10.141-6.746l-50.644-120.792l-30.628,45.187
	c-1.915,2.825-5.034,4.602-8.441,4.808c-3.414,0.202-6.717-1.182-8.959-3.755L75.528,259.3H38.579c-6.075,0-11-4.926-11-11
	c0-6.075,4.925-11,11-11h41.956c3.181,0,6.206,1.377,8.295,3.775l17.616,20.226l34.008-50.173c2.265-3.341,6.171-5.179,10.196-4.774
	c4.018,0.4,7.492,2.969,9.054,6.692l45.943,109.581l48.766-186.081c1.196-4.563,5.168-7.856,9.874-8.185
	c4.714-0.322,9.099,2.379,10.916,6.732l48.956,117.167l32.946-69.633c1.697-3.586,5.193-5.981,9.15-6.267
	c3.959-0.292,7.762,1.581,9.956,4.886l37.223,56.052h44.145c6.075,0,11,4.925,11,11c0,6.075-4.925,11-11,11h-50.044
	c-3.685,0-7.125-1.846-9.163-4.916l-29.711-44.74l-35.183,74.36c-1.858,3.927-5.819,6.382-10.197,6.292
	c-4.344-0.1-8.221-2.747-9.896-6.756l-45.938-109.946l-48.75,186.019c-1.195,4.561-5.164,7.854-9.867,8.184
	C208.569,367.815,208.31,367.823,208.053,367.823z"/>
<g>
</g>
<g>
</g>
<g>
</g>
<g>
</g>
<g>
</g>
<g>
</g>
<g>
</g>
<g>
</g>
<g>
</g>
<g>
</g>
<g>
</g>
<g>
</g>
<g>
</g>
<g>
</g>
<g>
</g>
</svg>
