<?xml version="1.0" encoding="iso-8859-1"?>
<!-- Generator: Adobe Illustrator 19.0.0, SVG Export Plug-In . SVG Version: 6.00 Build 0)  -->
<svg version="1.1" id="Layer_1" xmlns="http://www.w3.org/2000/svg" xmlns:xlink="http://www.w3.org/1999/xlink" x="0px" y="0px"
	 viewBox="0 0 469.333 469.333" style="enable-background:new 0 0 469.333 469.333;" xml:space="preserve">
<g>
	<g>
		<g>
			<path d="M384,42.667H42.667C19.135,42.667,0,61.802,0,85.333v341.333c0,23.531,19.135,42.667,42.667,42.667H384
				c23.531,0,42.667-19.135,42.667-42.667V85.333C426.667,61.802,407.531,42.667,384,42.667z M405.333,426.667
				c0,11.76-9.573,21.333-21.333,21.333H42.667c-11.76,0-21.333-9.573-21.333-21.333V85.333C21.333,73.573,30.906,64,42.667,64H384
				c11.76,0,21.333,9.573,21.333,21.333V426.667z"/>
			<path d="M426.667,0h-352C68.771,0,64,4.771,64,10.667s4.771,10.667,10.667,10.667h352c11.76,0,21.333,9.573,21.333,21.333v352
				c0,5.896,4.771,10.667,10.667,10.667c5.896,0,10.667-4.771,10.667-10.667v-352C469.333,19.135,450.198,0,426.667,0z"/>
			<path d="M213.333,234.667C201.573,234.667,192,244.24,192,256c0,11.76,9.573,21.333,21.333,21.333
				c11.76,0,21.333-9.573,21.333-21.333C234.667,244.24,225.094,234.667,213.333,234.667z"/>
			<path d="M213.333,85.333c-94.104,0-170.667,76.563-170.667,170.667s76.563,170.667,170.667,170.667S384,350.104,384,256
				S307.437,85.333,213.333,85.333z M213.333,405.333C130.99,405.333,64,338.344,64,256s66.99-149.333,149.333-149.333
				S362.667,173.656,362.667,256S295.677,405.333,213.333,405.333z"/>
			<path d="M213.333,192c-35.292,0-64,28.708-64,64c0,35.292,28.708,64,64,64c35.292,0,64-28.708,64-64
				C277.333,220.708,248.625,192,213.333,192z M213.333,298.667c-23.531,0-42.667-19.135-42.667-42.667s19.135-42.667,42.667-42.667
				S256,232.469,256,256S236.865,298.667,213.333,298.667z"/>
			<path d="M213.354,149.333c5.885,0,10.667-4.771,10.667-10.667c0-5.885-4.771-10.667-10.667-10.667c-0.01,0-0.021,0-0.042,0
				c-34.177,0-66.313,13.313-90.49,37.49c-4.167,4.167-4.167,10.917,0,15.083c2.083,2.083,4.813,3.125,7.542,3.125
				c2.729,0,5.458-1.042,7.542-3.125c20.146-20.146,46.927-31.24,75.406-31.24C213.323,149.333,213.333,149.333,213.354,149.333z"/>
		</g>
	</g>
</g>
<g>
</g>
<g>
</g>
<g>
</g>
<g>
</g>
<g>
</g>
<g>
</g>
<g>
</g>
<g>
</g>
<g>
</g>
<g>
</g>
<g>
</g>
<g>
</g>
<g>
</g>
<g>
</g>
<g>
</g>
</svg>
